
<region>
sample=../UC/A/Piano_UC_MicA_A-1_vl2.flac
lokey=21
hikey=22
pitch_keycenter=21
ampeg_release=1.200

<region>
sample=../UC/A/Piano_UC_MicA_B-1_vl2.flac
lokey=23
hikey=23
pitch_keycenter=23
ampeg_release=1.170

<region>
sample=../UC/A/Piano_UC_MicA_C0_vl2.flac
lokey=24
hikey=25
pitch_keycenter=24
ampeg_release=1.150

<region>
sample=../UC/A/Piano_UC_MicA_D0_vl2.flac
lokey=26
hikey=27
pitch_keycenter=26
ampeg_release=1.120

<region>
sample=../UC/A/Piano_UC_MicA_E0_vl2.flac
lokey=28
hikey=28
pitch_keycenter=28
ampeg_release=1.100

<region>
sample=../UC/A/Piano_UC_MicA_F0_vl2.flac
lokey=29
hikey=30
pitch_keycenter=29
ampeg_release=1.050

<region>
sample=../UC/A/Piano_UC_MicA_G0_vl2.flac
lokey=31
hikey=32
pitch_keycenter=31
ampeg_release=1.030

<region>
sample=../UC/A/Piano_UC_MicA_A0_vl2.flac
lokey=33
hikey=34
pitch_keycenter=33
ampeg_release=1

<region>
sample=../UC/A/Piano_UC_MicA_B0_vl2.flac
lokey=35
hikey=35
pitch_keycenter=35
ampeg_release=0.960

<region>
sample=../UC/A/Piano_UC_MicA_C1_vl2.flac
lokey=36
hikey=37
pitch_keycenter=36
ampeg_release=0.920

<region>
sample=../UC/A/Piano_UC_MicA_D1_vl2.flac
lokey=38
hikey=39
pitch_keycenter=38
ampeg_release=0.880

<region>
sample=../UC/A/Piano_UC_MicA_E1_vl2.flac
lokey=40
hikey=41
pitch_keycenter=40
ampeg_release=0.850

<region>
sample=../UC/A/Piano_UC_MicA_F1_vl2.flac
lokey=41
hikey=42
pitch_keycenter=41
ampeg_release=0.800

<region>
sample=../UC/A/Piano_UC_MicA_G1_vl2.flac
lokey=43
hikey=44
pitch_keycenter=43
ampeg_release=0.750

<region>
sample=../UC/A/Piano_UC_MicA_A1_vl2.flac
lokey=45
hikey=46
pitch_keycenter=45
ampeg_release=0.700

<region>
sample=../UC/A/Piano_UC_MicA_B1_vl2.flac
lokey=47
hikey=47
pitch_keycenter=47
ampeg_release=0.675

<region>
sample=../UC/A/Piano_UC_MicA_C2_vl2.flac
lokey=48
hikey=49
pitch_keycenter=48
ampeg_release=0.650

<region>
sample=../UC/A/Piano_UC_MicA_D2_vl2.flac
lokey=50
hikey=51
pitch_keycenter=50
ampeg_release=0.625

<region>
sample=../UC/A/Piano_UC_MicA_E2_vl2.flac
lokey=52
hikey=52
pitch_keycenter=52
ampeg_release=0.600

<region>
sample=../UC/A/Piano_UC_MicA_F2_vl2.flac
lokey=53
hikey=54
pitch_keycenter=53
ampeg_release=0.590

<region>
sample=../UC/A/Piano_UC_MicA_G2_vl2.flac
lokey=55
hikey=56
pitch_keycenter=55
ampeg_release=0.580

<region>
sample=../UC/A/Piano_UC_MicA_A2_vl2.flac
lokey=57
hikey=58
pitch_keycenter=57
ampeg_release=0.570

<region>
sample=../UC/A/Piano_UC_MicA_B2_vl2.flac
lokey=59
hikey=59
pitch_keycenter=59
ampeg_release=0.560

<region>
sample=../UC/A/Piano_UC_MicA_C3_vl2.flac
lokey=60
hikey=61
ampeg_release=0.550

<region>
sample=../UC/A/Piano_UC_MicA_D3_vl2.flac
lokey=62
hikey=63
pitch_keycenter=62
ampeg_release=0.540

<region>
sample=../UC/A/Piano_UC_MicA_E3_vl2.flac
lokey=64
hikey=64
pitch_keycenter=64
ampeg_release=0.530

<region>
sample=../UC/A/Piano_UC_MicA_F3_vl2.flac
lokey=65
hikey=66
pitch_keycenter=65
ampeg_release=0.500

<region>
sample=../UC/A/Piano_UC_MicA_G3_vl2.flac
lokey=67
hikey=68
pitch_keycenter=67
ampeg_release=0.470

<region>
sample=../UC/A/Piano_UC_MicA_A3_vl2.flac
lokey=69
hikey=70
pitch_keycenter=69
ampeg_release=0.450

<region>
sample=../UC/A/Piano_UC_MicA_B3_vl2.flac
lokey=71
hikey=71
pitch_keycenter=71
ampeg_release=0.440

<region>
sample=../UC/A/Piano_UC_MicA_C4_vl2.flac
lokey=72
hikey=73
pitch_keycenter=72
ampeg_release=0.440

<region>
sample=../UC/A/Piano_UC_MicA_D4_vl2.flac
lokey=74
hikey=75
pitch_keycenter=74
ampeg_release=0.430

<region>
sample=../UC/A/Piano_UC_MicA_E4_vl2.flac
lokey=76
hikey=76
pitch_keycenter=76
ampeg_release=0.420

<region>
sample=../UC/A/Piano_UC_MicA_F4_vl2.flac
lokey=77
hikey=78
pitch_keycenter=77
ampeg_release=0.413

<region>
sample=../UC/A/Piano_UC_MicA_G4_vl2.flac
lokey=79
hikey=80
pitch_keycenter=79
ampeg_release=0.407

<region>
sample=../UC/A/Piano_UC_MicA_A4_vl2.flac
lokey=81
hikey=82
pitch_keycenter=81
ampeg_release=0.400

<region>
sample=../UC/A/Piano_UC_MicA_B4_vl2.flac
lokey=83
hikey=83
pitch_keycenter=83
ampeg_release=0.395

<region>
sample=../UC/A/Piano_UC_MicA_C5_vl2.flac
lokey=84
hikey=85
pitch_keycenter=84
ampeg_release=0.390

<region>
sample=../UC/A/Piano_UC_MicA_D5_vl2.flac
lokey=86
hikey=87
pitch_keycenter=86
ampeg_release=0.385

<region>
sample=../UC/A/Piano_UC_MicA_E5_vl2.flac
lokey=88
hikey=88
pitch_keycenter=88
ampeg_release=0.380

<region>
sample=../UC/A/Piano_UC_MicA_F5_vl2.flac
lokey=89
hikey=89
pitch_keycenter=89
ampeg_release=0.375

<region>
sample=../UC/A/Piano_UC_MicA_F5_vl2.flac
lokey=90
hikey=90
loop_mode=one_shot
pitch_keycenter=89

<region>
sample=../UC/A/Piano_UC_MicA_G5_vl2.flac
lokey=91
hikey=92
loop_mode=one_shot
pitch_keycenter=91

<region>
sample=../UC/A/Piano_UC_MicA_A5_vl2.flac
lokey=93
hikey=94
loop_mode=one_shot
pitch_keycenter=93

<region>
sample=../UC/A/Piano_UC_MicA_B5_vl2.flac
lokey=95
hikey=95
loop_mode=one_shot
pitch_keycenter=95

<region>
sample=../UC/A/Piano_UC_MicA_C6_vl2.flac
lokey=96
hikey=97
loop_mode=one_shot
pitch_keycenter=96

<region>
sample=../UC/A/Piano_UC_MicA_D6_vl2.flac
lokey=98
hikey=99
loop_mode=one_shot
pitch_keycenter=98

<region>
sample=../UC/A/Piano_UC_MicA_E6_vl2.flac
lokey=100
hikey=100
loop_mode=one_shot
pitch_keycenter=100

<region>
sample=../UC/A/Piano_UC_MicA_F6_vl2.flac
lokey=101
hikey=102
loop_mode=one_shot
pitch_keycenter=101

<region>
sample=../UC/A/Piano_UC_MicA_G6_vl2.flac
lokey=103
hikey=104
loop_mode=one_shot
pitch_keycenter=103

<region>
sample=../UC/A/Piano_UC_MicA_A6_vl2.flac
lokey=105
hikey=106
loop_mode=one_shot
pitch_keycenter=105

<region>
sample=../UC/A/Piano_UC_MicA_B6_vl2.flac
lokey=107
hikey=107
loop_mode=one_shot
pitch_keycenter=107

<region>
sample=../UC/A/Piano_UC_MicA_C7_vl2.flac
lokey=108
hikey=108
loop_mode=one_shot
pitch_keycenter=108
